<?xml version="1.0" standalone="no"?>
<!DOCTYPE svg PUBLIC "-//W3C//DTD SVG 20010904//EN"
 "http://www.w3.org/TR/2001/REC-SVG-20010904/DTD/svg10.dtd">
<svg version="1.0" xmlns="http://www.w3.org/2000/svg"
 width="512.000000pt" height="512.000000pt" viewBox="0 0 512.000000 512.000000"
 preserveAspectRatio="xMidYMid meet">
<metadata>
Created by potrace 1.14, written by Peter Selinger 2001-2017
</metadata>
<g transform="translate(0.000000,512.000000) scale(0.100000,-0.100000)"
fill="#000000" stroke="none">
<path d="M1496 4444 l1 -676 480 -480 480 -480 0 678 0 679 -477 478 c-263
262 -479 477 -481 477 -2 0 -3 -304 -3 -676z"/>
<path d="M3140 4643 l-475 -476 -1 -673 c-1 -371 1 -674 5 -674 3 0 219 213
480 474 l474 474 1 676 c1 372 -1 676 -4 676 -3 -1 -219 -215 -480 -477z"/>
<path d="M5 3620 c-1 -3 212 -219 474 -481 l476 -476 679 0 678 0 -480 480
-480 480 -672 1 c-370 1 -673 -1 -675 -4z"/>
<path d="M3789 3622 c-18 -2 -157 -135 -503 -481 l-478 -478 678 0 679 0 476
476 c263 262 475 478 473 480 -4 5 -1286 7 -1325 3z"/>
<path d="M476 1978 c-427 -426 -475 -478 -450 -479 16 0 321 -1 677 -1 l649
-1 480 480 480 480 -679 0 -678 0 -479 -479z"/>
<path d="M3288 1977 l480 -480 666 0 c366 0 669 3 673 6 3 4 -207 220 -468
480 l-475 474 -678 0 -678 0 480 -480z"/>
<path d="M1976 1831 l-479 -479 1 -668 c0 -368 1 -673 1 -678 1 -4 216 207
480 470 l478 479 0 678 c0 372 0 677 -1 677 -1 0 -217 -216 -480 -479z"/>
<path d="M2663 1634 l0 -679 474 -474 c260 -261 476 -471 480 -468 3 4 6 306
6 673 l0 666 -480 480 -480 480 0 -678z"/>
</g>
</svg>
