<?xml version="1.0" encoding="UTF-8"?><svg id="Ebene_1" xmlns="http://www.w3.org/2000/svg" viewBox="0 0 13 17"><defs><style>.cls-1{fill:#fff;}</style></defs><path class="cls-1" d="M11.5,6h-.5v-1.5C11,2.02,8.98,0,6.5,0S2,2.02,2,4.5v1.5h-.5c-.83,0-1.5,.67-1.5,1.5V15.5c0,.83,.67,1.5,1.5,1.5H11.5c.83,0,1.5-.67,1.5-1.5V7.5c0-.83-.67-1.5-1.5-1.5ZM3,4.5c0-1.93,1.57-3.5,3.5-3.5s3.5,1.57,3.5,3.5v1.5H3v-1.5ZM12,15.5c0,.28-.22,.5-.5,.5H1.5c-.28,0-.5-.22-.5-.5V7.5c0-.28,.22-.5,.5-.5H11.5c.28,0,.5,.22,.5,.5V15.5Z"/></svg>