<?xml version="1.0" encoding="UTF-8"?><svg id="Ebene_1" xmlns="http://www.w3.org/2000/svg" viewBox="0 0 390 142.6">
    <g>
        <path class="cls-1"
            d="M69.67,0l-7.49,8.5,11.82,31.41,2.88-1.59-10.66-28.39,7.64-8.79,1.87,.79-7.28,8.43,10.09,26.87c.58-.43,.91-.7,1.01-.79l2.38-2.02c1.44-1.15,2.35-1.97,2.74-2.45,1.25,5.48,3.17,10.37,5.76,14.7-1.39-.1-2.4-.14-3.03-.14-4.56,0-7.9,.72-10.01,2.16l13.04,35.37,10.81,8.36h-36.38l9.94-8.36-8-21.04c-5.28,5.33-9.34,10.4-12.18,15.2l-1.66-.43c2.83-4.71,7.06-9.97,12.68-15.78l.58-.72-1.37-3.17c-5.72,4.76-10.45,10.28-14.19,16.57l-1.3-2.09c-2.5-3.99-5.69-8.53-9.58-13.62l-.72-.86c-3.7,8.21-5.55,14.89-5.55,20.03,0,3.03,.52,5.58,1.55,7.67,1.03,2.09,3.52,5.58,7.46,10.48,.34,.43,.86,1.11,1.59,2.02H5.19l-1.44-1.95H40.42l-1.22-1.51c-3.17-3.84-5.25-6.83-6.23-8.97-.98-2.14-1.48-4.65-1.48-7.53,0-4.9,1.99-12.2,5.98-21.9l-3.17-3.31c-.62,1.54-1.42,3.79-2.38,6.77l-2.38,7.35c-1.3,3.94-1.95,7.2-1.95,9.8s.46,4.92,1.37,6.7c.91,1.78,2.83,4.2,5.76,7.28,.29,.29,.72,.75,1.3,1.37H0c6.87-3.55,12.31-8.33,16.32-14.34,4.01-6,7.98-15.27,11.92-27.81l.29-1.01c-2.55-2.16-6.22-3.48-11.02-3.96,2.64-3.94,4.68-8.04,6.12-12.32,.67,.62,1.08,1.01,1.22,1.15l3.24,3.03c1.1,1.06,2.42,2.14,3.96,3.24l1.3-3.17-.86-.72c-2.4-2.11-4.42-3.82-6.05-5.12l-.65-.5,1.15-1.59c2.55,1.68,4.99,3.63,7.35,5.84l9.8-26.95L36.46,0h33.21Zm-21.04,14.77l-11.46,30.26c3.65,3.75,6.8,7.45,9.44,11.1l3.31,4.61s.29,.36,.72,.94c.43-.43,.67-.7,.72-.79l1.01-1.22c.14-.19,.41-.5,.79-.94-3.36-5.19-7.28-9.87-11.74-14.05l9.22-24.35-2.02-5.55Zm3.24,8.36l-7.93,20.89c.43,.48,.67,.77,.72,.86l2.95,3.31c1.59,1.73,3.6,4.42,6.05,8.07l.72,1.08c2.06-2.59,4.51-5.16,7.35-7.71l-9.87-26.51Zm39.12,12.32c1.06,4.32,3.7,10.26,7.93,17.8-1.06-.14-1.66-.22-1.8-.22l-5.84-.5c-2.64-.24-4.56-.36-5.76-.36-.19,0-.67,.02-1.44,.07l12.03,31.92,16.07,14.19h-41.71l-1.37-1.95h38.26l-12.97-11.46-12.82-33.93c1.63-.43,3.51-.65,5.62-.65,2.59,0,5.48,.22,8.65,.65l-.86-1.59c-3.07-5.67-5.14-10.78-6.2-15.35l2.23,1.37Z" />
        <path class="cls-1"
            d="M197.18,0l-57.78,86.31h4.54L200.56,1.59l1.3,1.73-55.48,83h7.2l5.69-.14h2.95c3.94,0,7.67-.74,11.2-2.23,3.53-1.49,6.21-3.43,8.03-5.84,2.26-2.98,4.18-6.27,5.76-9.87,4.03,10.57,8.31,18.64,12.82,24.21H118.07L171.46,12.25l-1.44-.07-9.22-.14c-8.74,0-14.77,.95-18.08,2.85-3.31,1.9-5.72,5.8-7.2,11.71l-1.51-1.66c.91-4.08,2.88-7.47,5.91-10.16,2.02-1.82,4.39-3.04,7.13-3.64,2.74-.6,7.25-.9,13.55-.9,3.99,0,7.66,.07,11.02,.22l1.08,.07,2.81-4.11c-3.36-.24-6.68-.36-9.94-.36-9.94,0-16.77,.43-20.5,1.3-3.72,.86-6.95,2.74-9.69,5.62-2.11,2.26-3.84,5.31-5.19,9.15l-.58-1.22c-2.4-5.52-5.81-12.22-10.23-20.1l-.43-.79h78.24Zm10.52,91.86l-3.68,6.48H121.75l-1.51-1.95h82.64l2.59-4.54c-5.52-6.72-9.87-14.36-13.04-22.91l2.45,.94c2.45,7.25,6.53,14.36,12.25,21.33l.58,.65Z" />
        <path class="cls-1"
            d="M295.76,0l-12.9,10.3V56.84c0,8.55-.28,14.7-.83,18.44-.55,3.75-1.65,6.82-3.28,9.22-4.13,6.15-12.15,9.22-24.06,9.22-12.58,0-21.37-3.07-26.37-9.22-3.99-4.85-5.98-14.14-5.98-27.88V8.79L212.55,0h34.01l-9.8,9.58V56.7l.14,11.1c0,7.16,1.49,12.24,4.47,15.24,2.98,3,8,4.5,15.06,4.5,7.78,0,13.14-2.28,16.07-6.84,2.35-3.7,3.53-11.62,3.53-23.78l.29-46.61-11.24-10.3h30.69Zm2.45,4.9l-9.8,8.14V57.78c0,14.65-1.15,24.21-3.46,28.67-4.71,9.03-13.9,13.54-27.59,13.54-11.82,0-20.7-2.95-26.66-8.86l.58,.29,2.52,1.44c5.91,3.46,13.5,5.19,22.77,5.19,13.26,0,22.05-4.18,26.37-12.54,2.31-4.51,3.46-13.59,3.46-27.23V12.18l10.73-8.79,1.08,1.51Zm-48.63-1.01l-7.06,7.13v53.53s-.33,5.79,1.06,10.89,4.29,7.27,7.37,9.86l.14,.65c-4.03-1.63-6.82-4.01-8.36-7.13-1.54-3.12-2.31-7.95-2.31-14.48V10.3l8.14-7.93,1.01,1.51Z" />
        <path class="cls-1"
            d="M307.72,0h34.44l-10.16,9.87V86.89h.58l2.59,.22h.65V10.59l7.78-7.85,1.01,1.59-6.99,7.13V87.1c2.16,.19,4.23,.29,6.2,.29,7.64,0,13.41-1.69,17.33-5.08,3.91-3.39,6.54-8.97,7.89-16.75,4.51,13.11,9.15,22.07,13.9,26.87h-75.22l9.94-8.14V9.15l-9.94-9.15Zm82.28,91.86l-3.24,6.48h-75.22l-1.8-1.95h76.22l2.09-4.54c-5.28-6.48-9.51-13.71-12.68-21.69l-.29-.79,2.31,.86,.5,1.22c3.22,7.11,7.06,13.67,11.53,19.67l.58,.72Z" />
    </g>
    <g>
        <path class="cls-1"
            d="M20.84,120.64c-.51,.68-.91,1.4-1.22,2.14-.6,1.46-.99,2.36-1.19,2.7l-.07,.09c-.04-.11-.07-.19-.09-.25-.27-.88-.5-1.49-.67-1.83s-.44-.67-.79-.98c-.89-.79-1.9-1.19-3.03-1.19-1.04,0-1.91,.29-2.61,.87s-1.04,1.31-1.04,2.19c0,1.64,1.24,2.76,3.71,3.35l2.48,.6c3.53,.85,5.29,2.71,5.29,5.58,0,1.6-.6,2.95-1.81,4.04-1.21,1.09-2.7,1.63-4.48,1.63-1.11,0-2.36-.17-3.74-.51l-1.71-.42c-.69-.17-1.26-.25-1.71-.25-.6,0-1.21,.19-1.85,.57l-.12-.21c1.21-1.83,2.06-3.56,2.55-5.21l.26,.07c.21,1.53,.82,2.72,1.85,3.57s2.37,1.27,4.03,1.27c1.31,0,2.35-.3,3.12-.91s1.16-1.42,1.16-2.45c0-1.18-.54-2.16-1.61-2.93-.77-.55-2.35-1.05-4.75-1.52-1.85-.36-3.18-.96-4.01-1.8s-1.25-2.01-1.25-3.5,.55-2.8,1.66-3.76,2.55-1.44,4.33-1.44c1.14,0,2.48,.21,4,.62,.71,.2,1.24,.29,1.58,.29,.48,0,1-.17,1.57-.5l.16,.07Zm0,9.35c1.33,1.01,1.99,2.38,1.99,4.13,0,1.87-.72,3.44-2.17,4.74s-3.2,1.94-5.27,1.94c-1.05,0-2.01-.11-2.86-.32l-2.34-.57c-.55-.14-1.13-.21-1.76-.21-.56,0-1.07,.11-1.54,.34l-.18-.42c.51-.23,1.03-.35,1.55-.35,.59,0,1.25,.09,2.01,.26l2.26,.54c.9,.21,1.85,.32,2.84,.32,1.95,0,3.62-.62,4.99-1.87s2.06-2.75,2.06-4.52c0-1.49-.53-2.8-1.58-3.93v-.09Zm-12.26-.53l.5,.28c.32,.58,1.26,1.05,2.83,1.44l2.36,.59c1.6,.4,2.67,.74,3.2,1.03s.91,.73,1.14,1.31l-.1,.06c-.44-.51-.92-.88-1.43-1.11-.51-.23-1.5-.52-2.95-.86-2.11-.49-3.53-.91-4.25-1.27s-1.15-.84-1.29-1.46Zm1.83,4.75c.36,1.76,1.33,3,2.9,3.74v.12c-1.82-.53-2.92-1.79-3.3-3.78l.4-.07Zm7.06-10.03c-1.07-1.14-2.23-1.71-3.46-1.71-.74,0-1.36,.21-1.85,.64s-.73,.98-.73,1.64c0,.72,.49,1.46,1.48,2.23l.12,.07-.07,.12c-1.29-.58-1.93-1.41-1.93-2.5,0-.76,.27-1.38,.82-1.86s1.26-.72,2.14-.72,1.57,.18,2.21,.53c.63,.36,1.09,.86,1.38,1.5l-.1,.06Zm4.28-2.92l-.13,.22c-.4,.67-.74,1.32-1.03,1.93-.68,1.44-1.07,2.24-1.16,2.4l-.07,.1-.35-.15,.06-.13c.28-.64,.69-1.48,1.23-2.52l1-1.93,.07-.12,.38,.19Z" />
        <path class="cls-1"
            d="M51.12,120.94l-.16,.28c-.88,1.53-1.64,3.07-2.29,4.6l-.13,.34-.19-.1c-.22-1.48-.75-2.66-1.57-3.53s-1.81-1.3-2.97-1.3c-1.24,0-2.28,.54-3.11,1.63-1.04,1.35-1.57,3.63-1.57,6.86,0,2.77,.48,4.95,1.44,6.52,.96,1.57,2.3,2.36,4.01,2.36,1.37,0,2.46-.46,3.27-1.37s1.3-2.22,1.46-3.92c.04-.41,.21-.62,.5-.62,.38,0,.57,.32,.57,.95,0,.95-.21,1.93-.64,2.94-.91,2.15-2.78,3.22-5.62,3.22-2.54,0-4.56-.89-6.05-2.67s-2.24-4.19-2.24-7.23c0-2.8,.78-5.15,2.33-7.05s3.48-2.84,5.79-2.84c1.09,0,2.34,.27,3.74,.81,.73,.28,1.34,.42,1.82,.42,.52,0,.98-.14,1.39-.42l.23,.13Zm.53,12.6c-.16,2.42-.83,4.27-2.03,5.53s-2.87,1.9-5.02,1.9c-1.63,0-3.15-.5-4.56-1.51v-.12c1.25,.82,2.76,1.23,4.53,1.23,1.93,0,3.51-.62,4.73-1.86,.6-.61,1.04-1.28,1.32-2.04s.47-1.75,.57-2.99l.03-.34,.42,.19Zm-4.78-10.06c-.89-.71-1.73-1.07-2.52-1.07-2.53,0-3.79,2.41-3.79,7.24,0,2.2,.29,4.03,.88,5.49s1.41,2.4,2.48,2.83v.15c-1.15-.23-2.07-1.12-2.76-2.66-.69-1.54-1.03-3.48-1.03-5.84,0-5.05,1.39-7.57,4.16-7.57,.94,0,1.8,.42,2.59,1.25v.19Zm5.32-1.83l-.16,.28c-1.06,1.82-1.91,3.47-2.55,4.97l-.4-.19,.16-.37c.49-1.03,.92-1.88,1.29-2.55l1.17-2.08,.15-.26,.34,.21Z" />
        <path class="cls-1"
            d="M73.41,120.29c2.37,0,4.27,.9,5.69,2.7,1.42,1.8,2.13,4.2,2.13,7.21,0,2.84-.7,5.11-2.1,6.8-1.4,1.69-3.28,2.53-5.65,2.53-1.87,0-3.53-.6-4.98-1.79-2.14-1.76-3.21-4.36-3.21-7.81,0-2.95,.73-5.29,2.2-7.03s3.44-2.61,5.92-2.61Zm0,1.26c-3.3,0-4.95,2.9-4.95,8.7,0,5.36,1.63,8.04,4.88,8.04,1.51,0,2.67-.71,3.46-2.13s1.19-3.5,1.19-6.23c0-3.1-.38-5.25-1.14-6.47-.8-1.27-1.94-1.9-3.43-1.9Zm4.67-.51c1.4,.67,2.5,1.83,3.31,3.46s1.22,3.52,1.22,5.65c0,3.14-.8,5.68-2.39,7.62-1.6,1.93-3.69,2.9-6.29,2.9-1.66,0-3.21-.56-4.66-1.68v-.07c1.21,.89,2.73,1.33,4.56,1.33,2.45,0,4.46-.92,6.04-2.77s2.36-4.2,2.36-7.08c0-2.14-.36-4.01-1.08-5.61-.72-1.6-1.74-2.8-3.05-3.59v-.16Zm-1.54,2.71l-.25-.15c-.94-.52-1.8-.78-2.58-.78-2.57,0-3.85,2.52-3.85,7.57,0,3.69,.8,6.14,2.39,7.34l-.13,.15c-.98-.69-1.67-1.6-2.09-2.73s-.62-2.65-.62-4.58c0-5.42,1.43-8.13,4.28-8.13,1.3,0,2.25,.43,2.86,1.3Z" />
        <path class="cls-1"
            d="M96.6,122.24c2.31-1.34,4.8-2.01,7.47-2.01,2.07,0,3.78,.45,5.12,1.35s2.01,2.04,2.01,3.43c0,1.13-.44,2.14-1.32,3.01s-2.08,1.51-3.6,1.9c.67,1.86,1.59,3.66,2.75,5.42,1.16,1.76,2.32,3.11,3.48,4.04l-.22,.07c-1.46,.5-2.88,1.2-4.28,2.11l-.22,.15-.07-.47c-.62-3.78-1.5-6.98-2.62-9.61l-.06-.15c-.67,.31-1.58,.56-2.71,.75h-.12v5.49l2.58,2.75h-7.57l-.23-.4h6.97l-2.12-2.26v-5.9l.31-.04c1.11-.12,2.05-.34,2.8-.66-.06-.12-.09-.19-.1-.22l-.15-.42s-.03-.09-.07-.18c-.61,.18-1.75,.37-3.43,.57l-.16,.03v6.53l1.67,1.74h-6.47l1.9-1.74v-4.92h-.12c-.57,.14-1.08,.28-1.54,.44l-.12,.04-.13-.29c.43-.17,.77-.28,1.01-.34l.78-.19,.12-.03v-.76c-.58,0-1.29,.13-2.15,.38l-.16,.06c.02-.14,.12-.45,.29-.95,.02-.04,.09-.26,.21-.66l.04-.13c.44,.03,.78,.04,1.03,.04,.26,0,.51-.01,.73-.04v-7.21c-.45-.27-.91-.5-1.39-.69l-.12-.04Zm4.42-.38v7.9c.28,0,.55-.02,.81-.07v-7.21c.54-.15,1.18-.22,1.93-.22,1.9,0,3.2,.62,3.88,1.88-.72-.59-1.36-.99-1.9-1.21s-1.2-.33-1.96-.33c-.6,0-1.12,.06-1.57,.18v6.91l.16-.03c1.92-.35,3.35-.91,4.29-1.66,.93-.76,1.4-1.74,1.4-2.95,0-1.08-.42-1.98-1.26-2.69s-1.9-1.06-3.18-1.06c-1.03,0-1.89,.19-2.59,.57Zm7.08,8.79c.62,2.01,1.7,3.98,3.27,5.9,.98,1.2,2.21,2.28,3.71,3.24-2.24,.6-4.34,1.5-6.3,2.72l-.13,.09-.29-.23c1.87-1.22,3.85-2.12,5.96-2.7-2.81-1.88-5.02-4.87-6.64-8.99l-.09-.25c2.99-1.13,4.48-2.86,4.48-5.19,0-.96-.39-2-1.16-3.13,.99,.9,1.48,2.04,1.48,3.43,0,2.25-1.43,3.95-4.29,5.11Z" />
        <path class="cls-1"
            d="M142.85,120.48l-.23,.28c-1,1.22-1.79,2.62-2.37,4.2-.1-.22-.17-.39-.22-.5-.54-1.17-1.11-1.93-1.73-2.27s-1.72-.51-3.31-.51c-.73,0-1.61,.02-2.64,.07v6.74h.94v-5.96c.74-.07,1.45-.1,2.12-.1,1.24,0,2.15,.13,2.74,.4s1.11,.78,1.57,1.54c-.14-.1-.23-.17-.29-.22-.79-.62-1.36-1-1.71-1.11s-1.04-.18-2.08-.18c-.31,0-.87,.02-1.67,.06h-.31v5.58h2.7l1.89-2.59v6.31l-1.89-2.45h-4v8.22h.94v-7.53h3.18l.38,.38h-3.19v7.15c1.99,0,3.41-.14,4.25-.42s1.5-.84,1.98-1.67l.78-1.33c.03-.06,.09-.17,.18-.32,.25,1.07,.57,1.93,.94,2.58s1,1.4,1.87,2.26h-16.42l2.23-1.7v-6.53c-.82,.1-1.56,.35-2.23,.76l-.21-.31c.6-.43,1.41-.71,2.43-.83v-.69c-.17-.02-.28-.03-.35-.03-1,0-1.9,.37-2.72,1.1,.45-1.56,1.47-2.34,3.08-2.34v-6.25l-2.23-1.76h15.63Zm2.46,18.68l-.76,1.32h-16l-.23-.4h16.04l.5-.92c-1.41-1.3-2.4-2.69-2.97-4.16l.47,.18c.54,1.25,1.45,2.5,2.72,3.75l.23,.23Zm-6.06-12.77v6.47l-.37-.19v-6.47l.37,.19Zm4.31-4.88l-.1,.13c-1.19,1.6-1.99,2.94-2.39,4.03l-.25-.31c.65-1.51,1.5-2.9,2.53-4.16l.21,.31Z" />
        <path class="cls-1"
            d="M193.45,120.48c-.09,.17-.15,.28-.18,.34l-1,1.76c-.34,.62-.66,1.41-.95,2.34l-.03,.07-.15-.1-.04-.19c-.28-1.11-.69-1.88-1.21-2.31s-1.32-.64-2.39-.64c-.44,0-.88,.02-1.32,.06h-.18v15.88l1.73,1.6h-6.69l2.05-1.71v-14.58h-1.04c-1.01-.01-1.72,.18-2.15,.58-.42,.4-.68,1.09-.75,2.09h-.38c.11-1.14,.4-1.94,.89-2.39,.48-.45,1.28-.67,2.39-.67h1.04v-.7c-.5-.06-.97-.09-1.42-.09-1.26,0-2.17,.26-2.72,.77s-.86,1.38-.92,2.6h-.18c-.42-1.36-1.07-2.87-1.95-4.54l-.09-.15h17.64Zm-2.99,3.21c-.75-.49-1.63-.73-2.64-.73-.22,0-.46,.01-.7,.04l.06,14.72,2.33,2.75h-7.49l-.34-.4h7.02l-1.96-2.24v-15.26h.79c.95-.01,1.62,.06,2.01,.21,.4,.15,.7,.45,.92,.9Zm3.91-2.29c-.67,.86-1.38,2.29-2.12,4.28l-.06,.15-.32-.28,.04-.13c.72-2.02,1.42-3.43,2.09-4.22l.07-.09,.29,.29Z" />
        <path class="cls-1"
            d="M207.16,122.24c2.31-1.34,4.8-2.01,7.47-2.01,2.07,0,3.78,.45,5.12,1.35s2.01,2.04,2.01,3.43c0,1.13-.44,2.14-1.32,3.01s-2.08,1.51-3.6,1.9c.67,1.86,1.59,3.66,2.75,5.42,1.16,1.76,2.32,3.11,3.48,4.04l-.22,.07c-1.46,.5-2.88,1.2-4.28,2.11l-.22,.15-.07-.47c-.62-3.78-1.5-6.98-2.62-9.61l-.06-.15c-.67,.31-1.58,.56-2.71,.75h-.12v5.49l2.58,2.75h-7.57l-.23-.4h6.97l-2.12-2.26v-5.9l.31-.04c1.11-.12,2.05-.34,2.8-.66-.06-.12-.09-.19-.1-.22l-.15-.42s-.03-.09-.07-.18c-.61,.18-1.75,.37-3.43,.57l-.16,.03v6.53l1.67,1.74h-6.47l1.9-1.74v-4.92h-.12c-.57,.14-1.08,.28-1.54,.44l-.12,.04-.13-.29c.43-.17,.77-.28,1.01-.34l.78-.19,.12-.03v-.76c-.58,0-1.29,.13-2.15,.38l-.16,.06c.02-.14,.12-.45,.29-.95,.02-.04,.09-.26,.21-.66l.04-.13c.44,.03,.78,.04,1.03,.04,.26,0,.51-.01,.73-.04v-7.21c-.45-.27-.91-.5-1.39-.69l-.12-.04Zm4.42-.38v7.9c.28,0,.55-.02,.81-.07v-7.21c.54-.15,1.18-.22,1.93-.22,1.9,0,3.2,.62,3.88,1.88-.72-.59-1.36-.99-1.9-1.21s-1.2-.33-1.96-.33c-.6,0-1.12,.06-1.57,.18v6.91l.16-.03c1.92-.35,3.35-.91,4.29-1.66,.93-.76,1.4-1.74,1.4-2.95,0-1.08-.42-1.98-1.26-2.69s-1.9-1.06-3.18-1.06c-1.03,0-1.89,.19-2.59,.57Zm7.08,8.79c.62,2.01,1.7,3.98,3.27,5.9,.98,1.2,2.21,2.28,3.71,3.24-2.24,.6-4.34,1.5-6.3,2.72l-.13,.09-.29-.23c1.87-1.22,3.85-2.12,5.96-2.7-2.81-1.88-5.02-4.87-6.64-8.99l-.09-.25c2.99-1.13,4.48-2.86,4.48-5.19,0-.96-.39-2-1.16-3.13,.99,.9,1.48,2.04,1.48,3.43,0,2.25-1.43,3.95-4.29,5.11Z" />
        <path class="cls-1"
            d="M251.09,120.48l-1.52,1.73,2.4,6.39,.59-.32-2.17-5.77,1.55-1.79,.38,.16-1.48,1.71,2.05,5.46c.12-.09,.19-.14,.21-.16l.48-.41c.29-.23,.48-.4,.56-.5,.25,1.11,.64,2.11,1.17,2.99-.28-.02-.49-.03-.62-.03-.93,0-1.61,.15-2.04,.44l2.65,7.19,2.2,1.7h-7.4l2.02-1.7-1.63-4.28c-1.07,1.08-1.9,2.11-2.48,3.09l-.34-.09c.58-.96,1.44-2.03,2.58-3.21l.12-.15-.28-.64c-1.16,.97-2.12,2.09-2.89,3.37l-.26-.42c-.51-.81-1.16-1.73-1.95-2.77l-.15-.18c-.75,1.67-1.13,3.03-1.13,4.07,0,.62,.1,1.14,.32,1.56,.21,.42,.71,1.14,1.52,2.13,.07,.09,.18,.22,.32,.41h-7.91l-.29-.4h7.46l-.25-.31c-.64-.78-1.07-1.39-1.27-1.82s-.3-.94-.3-1.53c0-1,.41-2.48,1.22-4.45l-.64-.67c-.13,.31-.29,.77-.48,1.38l-.48,1.49c-.26,.8-.4,1.46-.4,1.99s.09,1,.28,1.36,.58,.85,1.17,1.48c.06,.06,.15,.15,.26,.28h-7.32c1.4-.72,2.5-1.69,3.32-2.92,.81-1.22,1.62-3.11,2.42-5.65l.06-.21c-.52-.44-1.26-.71-2.24-.81,.54-.8,.95-1.64,1.25-2.5,.14,.13,.22,.21,.25,.23l.66,.62c.22,.21,.49,.43,.81,.66l.26-.64-.18-.15c-.49-.43-.9-.78-1.23-1.04l-.13-.1,.23-.32c.52,.34,1.02,.74,1.49,1.19l1.99-5.48-1.55-1.67h6.75Zm-4.28,3l-2.33,6.15c.74,.76,1.38,1.51,1.92,2.26l.67,.94s.06,.07,.15,.19c.09-.09,.14-.14,.15-.16l.21-.25s.08-.1,.16-.19c-.68-1.05-1.48-2.01-2.39-2.86l1.88-4.95-.41-1.13Zm.66,1.7l-1.61,4.25c.09,.1,.14,.16,.15,.18l.6,.67c.32,.35,.73,.9,1.23,1.64l.15,.22c.42-.53,.92-1.05,1.49-1.57l-2.01-5.39Zm7.95,2.5c.21,.88,.75,2.08,1.61,3.62-.21-.03-.34-.04-.37-.04l-1.19-.1c-.54-.05-.93-.07-1.17-.07-.04,0-.14,0-.29,.01l2.45,6.49,3.27,2.89h-8.48l-.28-.4h7.78l-2.64-2.33-2.61-6.9c.33-.09,.71-.13,1.14-.13,.53,0,1.11,.04,1.76,.13l-.18-.32c-.62-1.15-1.04-2.19-1.26-3.12l.45,.28Z" />
        <path class="cls-1"
            d="M287.63,120.94l-.16,.28c-.88,1.53-1.64,3.07-2.29,4.6l-.13,.34-.19-.1c-.22-1.48-.75-2.66-1.57-3.53s-1.81-1.3-2.97-1.3c-1.24,0-2.28,.54-3.11,1.63-1.04,1.35-1.57,3.63-1.57,6.86,0,2.77,.48,4.95,1.44,6.52,.96,1.57,2.3,2.36,4.01,2.36,1.37,0,2.46-.46,3.27-1.37s1.3-2.22,1.46-3.92c.04-.41,.21-.62,.5-.62,.38,0,.57,.32,.57,.95,0,.95-.21,1.93-.64,2.94-.91,2.15-2.78,3.22-5.62,3.22-2.54,0-4.56-.89-6.05-2.67s-2.24-4.19-2.24-7.23c0-2.8,.78-5.15,2.33-7.05s3.48-2.84,5.79-2.84c1.09,0,2.34,.27,3.74,.81,.73,.28,1.34,.42,1.82,.42,.52,0,.98-.14,1.39-.42l.23,.13Zm.53,12.6c-.16,2.42-.83,4.27-2.03,5.53s-2.87,1.9-5.02,1.9c-1.63,0-3.15-.5-4.56-1.51v-.12c1.25,.82,2.76,1.23,4.53,1.23,1.93,0,3.51-.62,4.73-1.86,.6-.61,1.04-1.28,1.32-2.04s.47-1.75,.57-2.99l.03-.34,.42,.19Zm-4.78-10.06c-.89-.71-1.73-1.07-2.52-1.07-2.53,0-3.79,2.41-3.79,7.24,0,2.2,.29,4.03,.88,5.49s1.41,2.4,2.48,2.83v.15c-1.15-.23-2.07-1.12-2.76-2.66-.69-1.54-1.03-3.48-1.03-5.84,0-5.05,1.39-7.57,4.16-7.57,.94,0,1.8,.42,2.59,1.25v.19Zm5.32-1.83l-.16,.28c-1.06,1.82-1.91,3.47-2.55,4.97l-.4-.19,.16-.37c.49-1.03,.92-1.88,1.29-2.55l1.17-2.08,.15-.26,.34,.21Z" />
        <path class="cls-1"
            d="M301.81,120.48h6.86l-2.04,1.93v8.85l.81-.92v-7.81l1.64-1.6,.22,.32-1.51,1.46v7.16l4.54-5.42c.65-.78,.98-1.48,.98-2.11,0-.37-.19-.73-.56-1.06s-.82-.56-1.35-.67v-.15h7.72v.15c-1.69,.41-3.51,1.79-5.46,4.13l-2.04,2.42,5.41,10.5,2.46,1.6h-7.6l1.92-1.44-3.63-7.27-2.39,2.92v4.19l2.39,2.8h-7.51l-.4-.4h7.03l-1.86-2.24v-4.54l2.55-3.13-.32-.64-3.03,3.6v4.56l1.77,1.6h-6.71l2.01-1.71v-15.34l-1.89-1.74Zm18.05,1.33c-1.45,.1-2.89,.94-4.32,2.53l-2.56,2.84,5.17,10.49,4.15,2.8h-9.32l-.41-.4h8.48l-3.12-2.12-5.36-10.77,2.72-3.08c1.43-1.59,2.9-2.46,4.41-2.61l.16,.31Z" />
        <path class="cls-1"
            d="M349.88,120.48l-.23,.28c-1,1.22-1.79,2.62-2.37,4.2-.1-.22-.17-.39-.22-.5-.54-1.17-1.11-1.93-1.73-2.27s-1.72-.51-3.31-.51c-.73,0-1.61,.02-2.64,.07v6.74h.94v-5.96c.74-.07,1.45-.1,2.12-.1,1.24,0,2.15,.13,2.74,.4s1.11,.78,1.57,1.54c-.14-.1-.23-.17-.29-.22-.79-.62-1.36-1-1.71-1.11s-1.04-.18-2.08-.18c-.31,0-.87,.02-1.67,.06h-.31v5.58h2.7l1.89-2.59v6.31l-1.89-2.45h-4v8.22h.94v-7.53h3.18l.38,.38h-3.19v7.15c1.99,0,3.41-.14,4.25-.42s1.5-.84,1.98-1.67l.78-1.33c.03-.06,.09-.17,.18-.32,.25,1.07,.57,1.93,.94,2.58s1,1.4,1.87,2.26h-16.42l2.23-1.7v-6.53c-.82,.1-1.56,.35-2.23,.76l-.21-.31c.6-.43,1.41-.71,2.43-.83v-.69c-.17-.02-.28-.03-.35-.03-1,0-1.9,.37-2.72,1.1,.45-1.56,1.47-2.34,3.08-2.34v-6.25l-2.23-1.76h15.63Zm2.46,18.68l-.76,1.32h-16l-.23-.4h16.04l.5-.92c-1.41-1.3-2.4-2.69-2.97-4.16l.47,.18c.54,1.25,1.45,2.5,2.72,3.75l.23,.23Zm-6.06-12.77v6.47l-.37-.19v-6.47l.37,.19Zm4.31-4.88l-.1,.13c-1.19,1.6-1.99,2.94-2.39,4.03l-.25-.31c.65-1.51,1.5-2.9,2.53-4.16l.21,.31Z" />
        <path class="cls-1"
            d="M365.33,122.24c2.31-1.34,4.8-2.01,7.47-2.01,2.07,0,3.78,.45,5.12,1.35s2.01,2.04,2.01,3.43c0,1.13-.44,2.14-1.32,3.01s-2.08,1.51-3.6,1.9c.67,1.86,1.59,3.66,2.75,5.42,1.16,1.76,2.32,3.11,3.48,4.04l-.22,.07c-1.46,.5-2.88,1.2-4.28,2.11l-.22,.15-.07-.47c-.62-3.78-1.5-6.98-2.62-9.61l-.06-.15c-.67,.31-1.58,.56-2.71,.75h-.12v5.49l2.58,2.75h-7.57l-.23-.4h6.97l-2.12-2.26v-5.9l.31-.04c1.11-.12,2.05-.34,2.8-.66-.06-.12-.09-.19-.1-.22l-.15-.42s-.03-.09-.07-.18c-.61,.18-1.75,.37-3.43,.57l-.16,.03v6.53l1.67,1.74h-6.47l1.9-1.74v-4.92h-.12c-.57,.14-1.08,.28-1.54,.44l-.12,.04-.13-.29c.43-.17,.77-.28,1.01-.34l.78-.19,.12-.03v-.76c-.58,0-1.29,.13-2.15,.38l-.16,.06c.02-.14,.12-.45,.29-.95,.02-.04,.09-.26,.21-.66l.04-.13c.44,.03,.78,.04,1.03,.04,.26,0,.51-.01,.73-.04v-7.21c-.45-.27-.91-.5-1.39-.69l-.12-.04Zm4.42-.38v7.9c.28,0,.55-.02,.81-.07v-7.21c.54-.15,1.18-.22,1.93-.22,1.9,0,3.2,.62,3.88,1.88-.72-.59-1.36-.99-1.9-1.21s-1.2-.33-1.96-.33c-.6,0-1.12,.06-1.57,.18v6.91l.16-.03c1.92-.35,3.35-.91,4.29-1.66,.93-.76,1.4-1.74,1.4-2.95,0-1.08-.42-1.98-1.26-2.69s-1.9-1.06-3.18-1.06c-1.03,0-1.89,.19-2.59,.57Zm7.08,8.79c.62,2.01,1.7,3.98,3.27,5.9,.98,1.2,2.21,2.28,3.71,3.24-2.24,.6-4.34,1.5-6.3,2.72l-.13,.09-.29-.23c1.87-1.22,3.85-2.12,5.96-2.7-2.81-1.88-5.02-4.87-6.64-8.99l-.09-.25c2.99-1.13,4.48-2.86,4.48-5.19,0-.96-.39-2-1.16-3.13,.99,.9,1.48,2.04,1.48,3.43,0,2.25-1.43,3.95-4.29,5.11Z" />
    </g>
</svg>