<?xml version="1.0" encoding="UTF-8"?><svg id="Ebene_1" xmlns="http://www.w3.org/2000/svg" viewBox="0 0 100 100">
    <defs>
        <style>
            .cls-1 {
                fill: #043369;
            }
        </style>
    </defs>
    <path class="cls-1"
        d="M18.65,13.16c-3.26,0-5.36-3.38-5.36-4.53s2.51-.25,4.12-.25c5.07,0,7.67-3.38,13.28-3.38,3.34,0,4.33,.62,4.33,1.44s-2.1,.33-2.76,.33c-6.47,0-8.08,6.39-13.6,6.39Z" />
    <path class="cls-1"
        d="M13.16,18.65c0-3.26-3.38-5.36-4.53-5.36s-.25,2.51-.25,4.12c0,5.07-3.38,7.67-3.38,13.28,0,3.34,.62,4.33,1.44,4.33s.33-2.1,.33-2.76c0-6.47,6.39-8.08,6.39-13.6Z" />
    <circle class="cls-1" cx="20.3" cy="19.84" r="4.25" />
    <path class="cls-1"
        d="M81.35,86.84c3.26,0,5.36,3.38,5.36,4.53s-2.51,.25-4.12,.25c-5.07,0-7.67,3.38-13.28,3.38-3.34,0-4.33-.62-4.33-1.44s2.1-.33,2.76-.33c6.47,0,8.08-6.39,13.6-6.39Z" />
    <path class="cls-1"
        d="M86.84,81.35c0,3.26,3.38,5.36,4.53,5.36s.25-2.51,.25-4.12c0-5.07,3.38-7.67,3.38-13.28,0-3.34-.62-4.33-1.44-4.33s-.33,2.1-.33,2.76c0,6.47-6.39,8.08-6.39,13.6Z" />
    <circle class="cls-1" cx="79.7" cy="80.16" r="4.25" />
    <path class="cls-1"
        d="M86.84,18.65c0-3.26,3.38-5.36,4.53-5.36s.25,2.51,.25,4.12c0,5.07,3.38,7.67,3.38,13.28,0,3.34-.62,4.33-1.44,4.33s-.33-2.1-.33-2.76c0-6.47-6.39-8.08-6.39-13.6Z" />
    <path class="cls-1"
        d="M81.35,13.16c3.26,0,5.36-3.38,5.36-4.53s-2.51-.25-4.12-.25c-5.07,0-7.67-3.38-13.28-3.38-3.34,0-4.33,.62-4.33,1.44,0,.82,2.1,.33,2.76,.33,6.47,0,8.08,6.39,13.6,6.39Z" />
    <circle class="cls-1" cx="80.16" cy="20.3" r="4.25" />
    <path class="cls-1"
        d="M13.16,81.35c0,3.26-3.38,5.36-4.53,5.36s-.25-2.51-.25-4.12c0-5.07-3.38-7.67-3.38-13.28,0-3.34,.62-4.33,1.44-4.33s.33,2.1,.33,2.76c0,6.47,6.39,8.08,6.39,13.6Z" />
    <path class="cls-1"
        d="M18.65,86.84c-3.26,0-5.36,3.38-5.36,4.53,0,1.15,2.51,.25,4.12,.25,5.07,0,7.67,3.38,13.28,3.38,3.34,0,4.33-.62,4.33-1.44s-2.1-.33-2.76-.33c-6.47,0-8.08-6.39-13.6-6.39Z" />
    <circle class="cls-1" cx="19.84" cy="79.7" r="4.25" />
    <path class="cls-1"
        d="M50,95c-11.1-.05-19.3-9.23-24.01-18.49-.18-.39-.46-.75-.74-1.06-.28-.29-.6-.53-.94-.71-4.41-2.08-8.54-4.55-12.08-8.08-9.64-9.25-9.64-24.14,0-33.39,3.54-3.53,7.67-6,12.08-8.08,.34-.18,.66-.42,.94-.71,.29-.31,.55-.68,.74-1.06,2.25-4.3,4.95-8.36,8.49-11.72,9.04-8.94,21.98-8.95,31.02,0,3.54,3.36,6.25,7.42,8.49,11.72,.18,.39,.46,.75,.74,1.06,.28,.29,.6,.53,.94,.71,4.41,2.08,8.54,4.55,12.08,8.08,9.64,9.25,9.64,24.14,0,33.39-3.54,3.53-7.67,6-12.08,8.08-.34,.18-.66,.42-.94,.71-.29,.31-.55,.68-.74,1.06-4.7,9.26-12.91,18.44-24.01,18.49h0Zm0-5.06c8.2,.08,15.25-6.73,18.73-13.96,.61-1.26,1.21-2.83,2.11-3.9,.96-1.29,2.39-2.14,3.71-3,8.09-5.25,13.93-15.44,10.48-25.07-1.37-4.19-4.19-8.02-7.61-10.97-1.11-.98-2.38-1.86-3.62-2.68-1.71-.97-3.17-2.41-4.04-4.19-.8-1.75-1.79-3.8-2.85-5.41-9.04-14.28-24.78-14.29-33.83,0-1.06,1.6-2.05,3.66-2.85,5.41-.87,1.78-2.33,3.22-4.04,4.19-1.24,.83-2.52,1.7-3.62,2.68-3.42,2.95-6.25,6.77-7.61,10.97-3.44,9.63,2.4,19.82,10.48,25.07,1.33,.86,2.75,1.72,3.71,3,.87,1.08,1.53,2.64,2.11,3.9,3.48,7.23,10.53,14.05,18.73,13.96h0Z" />
</svg>