<?xml version="1.0" encoding="UTF-8"?><svg id="Ebene_1" xmlns="http://www.w3.org/2000/svg" viewBox="0 0 100 100"><defs><style>.cls-1{fill:#00c4f9;}.cls-2{fill:#1c2426;}</style></defs><rect class="cls-2" y="0" width="100" height="100"/><path class="cls-1" d="M60.55,20.71c.11-.18,.02-.42-.19-.47l-2.3-.57c-.09-.02-.19,0-.26,.05l-3.59,2.64c-.17,.13-.17,.38,0,.51l3.59,2.64c.08,.06,.17,.07,.26,.05l2.3-.57c.21-.05,.3-.29,.19-.47l-1.08-1.73c-.06-.1-.06-.23,0-.33l1.08-1.73Z"/><path class="cls-1" d="M54.21,16.19l3.59,2.64c.08,.06,.17,.07,.26,.05l2.3-.57c.21-.05,.3-.29,.19-.47l-1.08-1.73c-.06-.1-.06-.23,0-.33l1.08-1.73c.11-.18,.02-.42-.19-.47l-2.3-.57c-.09-.02-.19,0-.26,.05l-3.59,2.64c-.17,.13-.17,.38,0,.51Z"/><path class="cls-1" d="M40.53,15.77c.06,.1,.06,.23,0,.33l-1.08,1.73c-.11,.18-.02,.42,.19,.47l2.3,.57c.09,.02,.19,0,.26-.05l3.59-2.64c.17-.13,.17-.38,0-.51l-3.59-2.64c-.08-.06-.17-.07-.26-.05l-2.3,.57c-.21,.05-.3,.29-.19,.47l1.08,1.73Z"/><path class="cls-1" d="M39.45,24.51c-.11,.18-.02,.42,.19,.47l2.3,.57c.09,.02,.19,0,.26-.05l3.59-2.64c.17-.13,.17-.38,0-.51l-3.59-2.64c-.08-.06-.17-.07-.26-.05l-2.3,.57c-.21,.05-.3,.29-.19,.47l1.08,1.73c.06,.1,.06,.23,0,.33l-1.08,1.73Z"/><path class="cls-1" d="M49.56,27.07l-2.64-3.59c-.13-.17-.38-.17-.51,0l-2.64,3.59c-.06,.08-.07,.17-.05,.26l.57,2.3c.05,.21,.29,.3,.47,.19l1.73-1.08c.1-.06,.23-.06,.33,0l1.73,1.08c.18,.11,.42,.02,.47-.19l.57-2.3c.02-.09,0-.19-.05-.26Z"/><path class="cls-1" d="M53.08,23.48l-2.64,3.59c-.06,.08-.07,.17-.05,.26l.57,2.3c.05,.21,.29,.3,.47,.19l1.73-1.08c.1-.06,.23-.06,.33,0l1.73,1.08c.18,.11,.42,.02,.47-.19l.57-2.3c.02-.09,0-.19-.05-.26l-2.64-3.59c-.13-.17-.38-.17-.51,0Z"/><path class="cls-1" d="M53.08,15.06c.13,.17,.38,.17,.51,0l2.64-3.59c.06-.08,.07-.17,.05-.26l-.57-2.3c-.05-.21-.29-.3-.47-.19l-1.73,1.08c-.1,.06-.23,.06-.33,0l-1.73-1.08c-.18-.11-.42-.02-.47,.19l-.57,2.3c-.02,.09,0,.19,.05,.26l2.64,3.59Z"/><path class="cls-1" d="M46.41,15.06c.13,.17,.38,.17,.51,0l2.64-3.59c.06-.08,.07-.17,.05-.26l-.57-2.3c-.05-.21-.29-.3-.47-.19l-1.73,1.08c-.1,.06-.23,.06-.33,0l-1.73-1.08c-.18-.11-.42-.02-.47,.19l-.57,2.3c-.02,.09,0,.19,.05,.26l2.64,3.59Z"/><path class="cls-1" d="M47.45,19.27c0,1.41,1.14,2.55,2.55,2.55,1.41,0,2.55-1.14,2.55-2.55s-1.14-2.55-2.55-2.55c-1.41,0-2.55,1.14-2.55,2.55Z"/><path class="cls-1" d="M59.47,84.23c-.06-.1-.06-.23,0-.33l1.08-1.73c.11-.18,.02-.42-.19-.47l-2.3-.57c-.09-.02-.19,0-.26,.05l-3.59,2.64c-.17,.13-.17,.38,0,.51l3.59,2.64c.08,.06,.17,.07,.26,.05l2.3-.57c.21-.05,.3-.29,.19-.47l-1.08-1.73Z"/><path class="cls-1" d="M59.47,77.56c-.06-.1-.06-.23,0-.33l1.08-1.73c.11-.18,.02-.42-.19-.47l-2.3-.57c-.09-.02-.19,0-.26,.05l-3.59,2.64c-.17,.13-.17,.38,0,.51l3.59,2.64c.08,.06,.17,.07,.26,.05l2.3-.57c.21-.05,.3-.29,.19-.47l-1.08-1.73Z"/><path class="cls-1" d="M39.45,79.29c-.11,.18-.02,.42,.19,.47l2.3,.57c.09,.02,.19,0,.26-.05l3.59-2.64c.17-.13,.17-.38,0-.51l-3.59-2.64c-.08-.06-.17-.07-.26-.05l-2.3,.57c-.21,.05-.3,.29-.19,.47l1.08,1.73c.06,.1,.06,.23,0,.33l-1.08,1.73Z"/><path class="cls-1" d="M45.79,83.81l-3.59-2.64c-.08-.06-.17-.07-.26-.05l-2.3,.57c-.21,.05-.3,.29-.19,.47l1.08,1.73c.06,.1,.06,.23,0,.33l-1.08,1.73c-.11,.18-.02,.42,.19,.47l2.3,.57c.09,.02,.19,0,.26-.05l3.59-2.64c.17-.13,.17-.38,0-.51Z"/><path class="cls-1" d="M46.92,84.94c-.13-.17-.38-.17-.51,0l-2.64,3.59c-.06,.08-.07,.17-.05,.26l.57,2.3c.05,.21,.29,.3,.47,.19l1.73-1.08c.1-.06,.23-.06,.33,0l1.73,1.08c.18,.11,.42,.02,.47-.19l.57-2.3c.02-.09,0-.19-.05-.26l-2.64-3.59Z"/><path class="cls-1" d="M53.59,84.94c-.13-.17-.38-.17-.51,0l-2.64,3.59c-.06,.08-.07,.17-.05,.26l.57,2.3c.05,.21,.29,.3,.47,.19l1.73-1.08c.1-.06,.23-.06,.33,0l1.73,1.08c.18,.11,.42,.02,.47-.19l.57-2.3c.02-.09,0-.19-.05-.26l-2.64-3.59Z"/><path class="cls-1" d="M50.44,72.93l2.64,3.59c.13,.17,.38,.17,.51,0l2.64-3.59c.06-.08,.07-.17,.05-.26l-.57-2.3c-.05-.21-.29-.3-.47-.19l-1.73,1.08c-.1,.06-.23,.06-.33,0l-1.73-1.08c-.18-.11-.42-.02-.47,.19l-.57,2.3c-.02,.09,0,.19,.05,.26Z"/><path class="cls-1" d="M46.92,76.52l2.64-3.59c.06-.08,.07-.17,.05-.26l-.57-2.3c-.05-.21-.29-.3-.47-.19l-1.73,1.08c-.1,.06-.23,.06-.33,0l-1.73-1.08c-.18-.11-.42-.02-.47,.19l-.57,2.3c-.02,.09,0,.19,.05,.26l2.64,3.59c.13,.17,.38,.17,.51,0Z"/><path class="cls-1" d="M52.55,80.73c0-1.41-1.14-2.55-2.55-2.55-1.41,0-2.55,1.14-2.55,2.55,0,1.41,1.14,2.55,2.55,2.55s2.55-1.14,2.55-2.55Z"/><path class="cls-1" d="M77.65,54.21c-.13-.17-.38-.17-.51,0l-2.64,3.59c-.06,.08-.07,.17-.05,.26l.57,2.3c.05,.21,.29,.3,.47,.19l1.73-1.08c.1-.06,.23-.06,.33,0l1.73,1.08c.18,.11,.42,.02,.47-.19l.57-2.3c.02-.09,0-.19-.05-.26l-2.64-3.59Z"/><path class="cls-1" d="M82.16,60.55l1.73-1.08c.1-.06,.23-.06,.33,0l1.73,1.08c.18,.11,.42,.02,.47-.19l.57-2.3c.02-.09,0-.19-.05-.26l-2.64-3.59c-.13-.17-.38-.17-.51,0l-2.64,3.59c-.06,.08-.07,.17-.05,.26l.57,2.3c.05,.21,.29,.3,.47,.19Z"/><path class="cls-1" d="M83.81,45.79c.13,.17,.38,.17,.51,0l2.64-3.59c.06-.08,.07-.17,.05-.26l-.57-2.3c-.05-.21-.29-.3-.47-.19l-1.73,1.08c-.1,.06-.23,.06-.33,0l-1.73-1.08c-.18-.11-.42-.02-.47,.19l-.57,2.3c-.02,.09,0,.19,.05,.26l2.64,3.59Z"/><path class="cls-1" d="M79.29,39.45l-1.73,1.08c-.1,.06-.23,.06-.33,0l-1.73-1.08c-.18-.11-.42-.02-.47,.19l-.57,2.3c-.02,.09,0,.19,.05,.26l2.64,3.59c.13,.17,.38,.17,.51,0l2.64-3.59c.06-.08,.07-.17,.05-.26l-.57-2.3c-.05-.21-.29-.3-.47-.19Z"/><path class="cls-1" d="M70.18,48.56c-.11,.18-.02,.42,.19,.47l2.3,.57c.09,.02,.19,0,.26-.05l3.59-2.64c.17-.13,.17-.38,0-.51l-3.59-2.64c-.08-.06-.17-.07-.26-.05l-2.3,.57c-.21,.05-.3,.29-.19,.47l1.08,1.73c.06,.1,.06,.23,0,.33l-1.08,1.73Z"/><path class="cls-1" d="M76.52,53.08l-3.59-2.64c-.08-.06-.17-.07-.26-.05l-2.3,.57c-.21,.05-.3,.29-.19,.47l1.08,1.73c.06,.1,.06,.23,0,.33l-1.08,1.73c-.11,.18-.02,.42,.19,.47l2.3,.57c.09,.02,.19,0,.26-.05l3.59-2.64c.17-.13,.17-.38,0-.51Z"/><path class="cls-1" d="M84.94,53.59l3.59,2.64c.08,.06,.17,.07,.26,.05l2.3-.57c.21-.05,.3-.29,.19-.47l-1.08-1.73c-.06-.1-.06-.23,0-.33l1.08-1.73c.11-.18,.02-.42-.19-.47l-2.3-.57c-.09-.02-.19,0-.26,.05l-3.59,2.64c-.17,.13-.17,.38,0,.51Z"/><path class="cls-1" d="M91.28,44.77c.11-.18,.02-.42-.19-.47l-2.3-.57c-.09-.02-.19,0-.26,.05l-3.59,2.64c-.17,.13-.17,.38,0,.51l3.59,2.64c.08,.06,.17,.07,.26,.05l2.3-.57c.21-.05,.3-.29,.19-.47l-1.08-1.73c-.06-.1-.06-.23,0-.33l1.08-1.73Z"/><path class="cls-1" d="M83.28,50c0-1.41-1.14-2.55-2.55-2.55s-2.55,1.14-2.55,2.55,1.14,2.55,2.55,2.55c1.41,0,2.55-1.14,2.55-2.55Z"/><path class="cls-1" d="M16.19,54.21c-.13-.17-.38-.17-.51,0l-2.64,3.59c-.06,.08-.07,.17-.05,.26l.57,2.3c.05,.21,.29,.3,.47,.19l1.73-1.08c.1-.06,.23-.06,.33,0l1.73,1.08c.18,.11,.42,.02,.47-.19l.57-2.3c.02-.09,0-.19-.05-.26l-2.64-3.59Z"/><path class="cls-1" d="M20.71,60.55l1.73-1.08c.1-.06,.23-.06,.33,0l1.73,1.08c.18,.11,.42,.02,.47-.19l.57-2.3c.02-.09,0-.19-.05-.26l-2.64-3.59c-.13-.17-.38-.17-.51,0l-2.64,3.59c-.06,.08-.07,.17-.05,.26l.57,2.3c.05,.21,.29,.3,.47,.19Z"/><path class="cls-1" d="M22.35,45.79c.13,.17,.38,.17,.51,0l2.64-3.59c.06-.08,.07-.17,.05-.26l-.57-2.3c-.05-.21-.29-.3-.47-.19l-1.73,1.08c-.1,.06-.23,.06-.33,0l-1.73-1.08c-.18-.11-.42-.02-.47,.19l-.57,2.3c-.02,.09,0,.19,.05,.26l2.64,3.59Z"/><path class="cls-1" d="M17.84,39.45l-1.73,1.08c-.1,.06-.23,.06-.33,0l-1.73-1.08c-.18-.11-.42-.02-.47,.19l-.57,2.3c-.02,.09,0,.19,.05,.26l2.64,3.59c.13,.17,.38,.17,.51,0l2.64-3.59c.06-.08,.07-.17,.05-.26l-.57-2.3c-.05-.21-.29-.3-.47-.19Z"/><path class="cls-1" d="M15.06,46.41l-3.59-2.64c-.08-.06-.17-.07-.26-.05l-2.3,.57c-.21,.05-.3,.29-.19,.47l1.08,1.73c.06,.1,.06,.23,0,.33l-1.08,1.73c-.11,.18-.02,.42,.19,.47l2.3,.57c.09,.02,.19,0,.26-.05l3.59-2.64c.17-.13,.17-.38,0-.51Z"/><path class="cls-1" d="M8.72,55.23c-.11,.18-.02,.42,.19,.47l2.3,.57c.09,.02,.19,0,.26-.05l3.59-2.64c.17-.13,.17-.38,0-.51l-3.59-2.64c-.08-.06-.17-.07-.26-.05l-2.3,.57c-.21,.05-.3,.29-.19,.47l1.08,1.73c.06,.1,.06,.23,0,.33l-1.08,1.73Z"/><path class="cls-1" d="M27.07,56.23c.08,.06,.17,.07,.26,.05l2.3-.57c.21-.05,.3-.29,.19-.47l-1.08-1.73c-.06-.1-.06-.23,0-.33l1.08-1.73c.11-.18,.02-.42-.19-.47l-2.3-.57c-.09-.02-.19,0-.26,.05l-3.59,2.64c-.17,.13-.17,.38,0,.51l3.59,2.64Z"/><path class="cls-1" d="M23.48,46.92l3.59,2.64c.08,.06,.17,.07,.26,.05l2.3-.57c.21-.05,.3-.29,.19-.47l-1.08-1.73c-.06-.1-.06-.23,0-.33l1.08-1.73c.11-.18,.02-.42-.19-.47l-2.3-.57c-.09-.02-.19,0-.26,.05l-3.59,2.64c-.17,.13-.17,.38,0,.51Z"/><path class="cls-1" d="M21.83,50c0-1.41-1.14-2.55-2.55-2.55-1.41,0-2.55,1.14-2.55,2.55,0,1.41,1.14,2.55,2.55,2.55,1.41,0,2.55-1.14,2.55-2.55Z"/><path class="cls-1" d="M69.99,23.56l-.56,4.95-10.2,10.2-4.95,.56c-1.25,.14-1.79,1.67-.9,2.56l4.78,4.78c.89,.89,2.42,.36,2.56-.9l.56-4.95,10.2-10.2,4.95-.56c1.26-.14,1.79-1.67,.9-2.56l-4.78-4.78c-.89-.89-2.42-.36-2.56,.9Z"/><path class="cls-1" d="M79.14,25.43l.98-4.86c.09-.44-.25-.77-.68-.68l-4.86,.98c-.56,.11-.86,.82-.49,1.18l3.88,3.88c.36,.36,1.07,.07,1.18-.49Z"/><path class="cls-1" d="M82.07,18.61l4.86-.98c.56-.11,.86-.82,.49-1.18l-3.88-3.88c-.36-.36-1.07-.07-1.18,.49l-.98,4.86c-.09,.44,.25,.77,.68,.68Z"/><path class="cls-1" d="M74.08,16.45c-.36,.36-.07,1.07,.49,1.18l4.86,.98c.44,.09,.77-.25,.68-.68l-.98-4.86c-.11-.56-.82-.86-1.18-.49l-3.88,3.88Z"/><path class="cls-1" d="M82.37,25.43c.11,.56,.82,.86,1.18,.49l3.88-3.88c.36-.36,.07-1.07-.49-1.18l-4.86-.98c-.44-.09-.77,.25-.68,.68l.98,4.86Z"/><path class="cls-1" d="M89.46,16.34c.54,.54,1.5,.19,1.61-.59l.88-6.34,2.77-2.77c.38-.38,.38-.99,0-1.36h0c-.38-.38-.99-.38-1.36,0l-2.77,2.77-6.34,.88c-.78,.11-1.13,1.07-.59,1.61l5.8,5.8Z"/><path class="cls-1" d="M91.95,29.08l-.88-6.34c-.11-.78-1.07-1.13-1.61-.59l-5.8,5.8c-.54,.54-.19,1.5,.59,1.61l6.34,.88,2.77,2.77c.38,.38,.99,.38,1.36,0h0c.38-.38,.38-.99,0-1.36l-2.77-2.77Z"/><path class="cls-1" d="M69.56,9.41l.88,6.34c.11,.78,1.07,1.13,1.61,.59l5.8-5.8c.54-.54,.19-1.5-.59-1.61l-6.34-.88-2.77-2.77c-.38-.38-.99-.38-1.36,0h0c-.38,.38-.37,.99,0,1.36l2.77,2.77Z"/><path class="cls-1" d="M30.01,76.44l.56-4.95,10.2-10.2,4.95-.56c1.26-.14,1.79-1.67,.9-2.56l-4.78-4.78c-.89-.89-2.42-.36-2.56,.9l-.56,4.95-10.2,10.2-4.95,.56c-1.25,.14-1.79,1.67-.9,2.56l4.78,4.78c.89,.89,2.42,.36,2.56-.9Z"/><path class="cls-1" d="M20.86,74.57l-.98,4.86c-.09,.44,.25,.77,.68,.68l4.86-.98c.56-.11,.86-.82,.49-1.18l-3.88-3.88c-.36-.36-1.07-.07-1.18,.49Z"/><path class="cls-1" d="M17.93,81.39l-4.86,.98c-.56,.11-.86,.82-.49,1.18l3.88,3.88c.36,.36,1.07,.07,1.18-.49l.98-4.86c.09-.44-.25-.77-.68-.68Z"/><path class="cls-1" d="M25.92,83.55c.36-.36,.07-1.07-.49-1.18l-4.86-.98c-.44-.09-.77,.25-.68,.68l.98,4.86c.11,.56,.82,.86,1.18,.49l3.88-3.88Z"/><path class="cls-1" d="M17.63,74.57c-.11-.56-.82-.86-1.18-.49l-3.88,3.88c-.36,.36-.07,1.07,.49,1.18l4.86,.98c.44,.09,.77-.25,.68-.68l-.98-4.86Z"/><path class="cls-1" d="M10.54,83.66c-.54-.54-1.5-.19-1.61,.59l-.88,6.34-2.77,2.77c-.38,.38-.38,.99,0,1.36h0c.38,.38,.99,.38,1.36,0l2.77-2.77,6.34-.88c.78-.11,1.13-1.07,.59-1.61l-5.8-5.8Z"/><path class="cls-1" d="M8.05,70.92l.88,6.34c.11,.78,1.07,1.13,1.61,.59l5.8-5.8c.54-.54,.19-1.5-.59-1.61l-6.34-.88-2.77-2.77c-.38-.38-.99-.38-1.36,0h0c-.38,.38-.38,.99,0,1.36l2.77,2.77Z"/><path class="cls-1" d="M30.44,90.59l-.88-6.34c-.11-.78-1.07-1.13-1.61-.59l-5.8,5.8c-.54,.54-.19,1.5,.59,1.61l6.34,.88,2.77,2.77c.38,.38,.99,.38,1.36,0h0c.38-.38,.38-.99,0-1.36l-2.77-2.77Z"/><path class="cls-1" d="M76.44,69.99l-4.95-.56-10.2-10.2-.56-4.95c-.14-1.25-1.67-1.79-2.56-.9l-4.78,4.78c-.89,.89-.36,2.42,.9,2.56l4.95,.56,10.2,10.2,.56,4.95c.14,1.25,1.67,1.79,2.56,.9l4.78-4.78c.89-.89,.36-2.42-.9-2.56Z"/><path class="cls-1" d="M74.57,79.14l4.86,.98c.44,.09,.77-.25,.68-.68l-.98-4.86c-.11-.56-.82-.86-1.18-.49l-3.88,3.88c-.36,.36-.07,1.07,.49,1.18Z"/><path class="cls-1" d="M87.43,83.55c.36-.36,.07-1.07-.49-1.18l-4.86-.98c-.44-.09-.77,.25-.68,.68l.98,4.86c.11,.56,.82,.86,1.18,.49l3.88-3.88Z"/><path class="cls-1" d="M82.07,80.12l4.86-.98c.56-.11,.86-.82,.49-1.18l-3.88-3.88c-.36-.36-1.07-.07-1.18,.49l-.98,4.86c-.09,.44,.25,.77,.68,.68Z"/><path class="cls-1" d="M79.44,81.39l-4.86,.98c-.56,.11-.86,.82-.49,1.18l3.88,3.88c.36,.36,1.07,.07,1.18-.49l.98-4.86c.09-.44-.25-.77-.68-.68Z"/><path class="cls-1" d="M91.95,90.59l-.88-6.34c-.11-.78-1.07-1.13-1.61-.59l-5.8,5.8c-.54,.54-.19,1.5,.59,1.61l6.34,.88,2.77,2.77c.38,.38,.99,.38,1.36,0h0c.38-.38,.38-.99,0-1.36l-2.77-2.77Z"/><path class="cls-1" d="M72.05,83.66c-.54-.54-1.5-.19-1.61,.59l-.88,6.34-2.77,2.77c-.38,.38-.38,.99,0,1.36h0c.38,.38,.99,.38,1.36,0l2.77-2.77,6.34-.88c.78-.11,1.13-1.07,.59-1.61l-5.8-5.8Z"/><path class="cls-1" d="M83.66,72.05l5.8,5.8c.54,.54,1.5,.19,1.61-.59l.88-6.34,2.77-2.77c.38-.38,.38-.99,0-1.36h0c-.38-.38-.99-.38-1.36,0l-2.77,2.77-6.34,.88c-.78,.11-1.13,1.07-.59,1.61Z"/><path class="cls-1" d="M23.56,30.01l4.95,.56,10.2,10.2,.56,4.95c.14,1.25,1.67,1.79,2.56,.9l4.78-4.78c.89-.89,.36-2.42-.9-2.56l-4.95-.56-10.2-10.2-.56-4.95c-.14-1.25-1.67-1.79-2.56-.9l-4.78,4.78c-.89,.89-.36,2.42,.9,2.56Z"/><path class="cls-1" d="M25.43,20.86l-4.86-.98c-.44-.09-.77,.25-.68,.68l.98,4.86c.11,.56,.82,.86,1.18,.49l3.88-3.88c.36-.36,.07-1.07-.49-1.18Z"/><path class="cls-1" d="M12.57,16.45c-.36,.36-.07,1.07,.49,1.18l4.86,.98c.44,.09,.77-.25,.68-.68l-.98-4.86c-.11-.56-.82-.86-1.18-.49l-3.88,3.88Z"/><path class="cls-1" d="M17.93,19.88l-4.86,.98c-.56,.11-.86,.82-.49,1.18l3.88,3.88c.36,.36,1.07,.07,1.18-.49l.98-4.86c.09-.44-.25-.77-.68-.68Z"/><path class="cls-1" d="M20.56,18.61l4.86-.98c.56-.11,.86-.82,.49-1.18l-3.88-3.88c-.36-.36-1.07-.07-1.18,.49l-.98,4.86c-.09,.44,.25,.77,.68,.68Z"/><path class="cls-1" d="M8.05,9.41l.88,6.34c.11,.78,1.07,1.13,1.61,.59l5.8-5.8c.54-.54,.19-1.5-.59-1.61l-6.34-.88-2.77-2.77c-.38-.38-.99-.38-1.36,0h0c-.38,.38-.38,.99,0,1.36l2.77,2.77Z"/><path class="cls-1" d="M27.95,16.34c.54,.54,1.5,.19,1.61-.59l.88-6.34,2.77-2.77c.38-.38,.38-.99,0-1.36h0c-.38-.38-.99-.38-1.36,0l-2.77,2.77-6.34,.88c-.78,.11-1.13,1.07-.59,1.61l5.8,5.8Z"/><path class="cls-1" d="M5.28,33.21c.38,.38,.99,.38,1.36,0l2.77-2.77,6.34-.88c.78-.11,1.13-1.07,.59-1.61l-5.8-5.8c-.54-.54-1.5-.19-1.61,.59l-.88,6.34-2.77,2.77c-.38,.38-.38,.99,0,1.36h0Z"/><path class="cls-1" d="M43.82,48.38l4.86,.98c.44,.09,.77-.25,.68-.68l-.98-4.86c-.11-.56-.82-.86-1.18-.49l-3.88,3.88c-.36,.36-.07,1.07,.49,1.18Z"/><path class="cls-1" d="M56.68,52.8c.36-.36,.07-1.07-.49-1.18l-4.86-.98c-.44-.09-.77,.25-.68,.68l.98,4.86c.11,.56,.82,.86,1.18,.49l3.88-3.88Z"/><path class="cls-1" d="M51.32,49.37l4.86-.98c.56-.11,.86-.82,.49-1.18l-3.88-3.88c-.36-.36-1.07-.07-1.18,.49l-.98,4.86c-.09,.44,.25,.77,.68,.68Z"/><path class="cls-1" d="M48.68,50.63l-4.86,.98c-.56,.11-.86,.82-.49,1.18l3.88,3.88c.36,.36,1.07,.07,1.18-.49l.98-4.86c.09-.44-.25-.77-.68-.68Z"/></svg>