<?xml version="1.0" encoding="UTF-8"?><svg id="Ebene_1" xmlns="http://www.w3.org/2000/svg" viewBox="0 0 100 100">
    <defs>
        <style>
            .cls-1 {
                fill: #d9f8ff;
            }

            .cls-2 {
                fill: #00c4f9;
            }
        </style>
    </defs>
    <rect class="cls-2" x="0" width="100" height="100" />
    <path class="cls-1"
        d="M85,5h-16.36V28.8l-16.83,16.83V21.83L68.64,5H31.36l16.83,16.83v23.8L31.36,28.8V5H15c-3.91,3.91-6.09,6.09-10,10V31.36H28.8l16.83,16.83H21.83L5,31.36v37.28l16.83-16.83h23.8l-16.83,16.83H5v16.36l10,10H31.36v-23.8l16.83-16.83v23.8l-16.83,16.83h37.28l-16.83-16.83v-23.8l16.83,16.83v23.8h16.36c3.91-3.91,6.09-6.09,10-10v-16.36h-23.8l-16.83-16.83h23.8l16.83,16.83V31.36l-16.83,16.83h-23.8l16.83-16.83h23.8V15l-10-10Z" />
</svg>