<?xml version="1.0" encoding="UTF-8"?><svg id="Ebene_1" xmlns="http://www.w3.org/2000/svg" viewBox="0 0 100 100">
    <defs>
        <style>
            .cls-1 {
                fill: #fcbc1e;
            }

            .cls-2 {
                fill: #e82624;
            }
        </style>
    </defs>
    <rect class="cls-1" x="0" width="100" height="100" />
    <path class="cls-2"
        d="M6.32,46.44c4.48-.27,4.68,1.08,5.44-1.55s3.75-8.86,5.98-11.74c2.23-2.88,8.61-3.49,14.48,2.38,3.53,3.53,.65,5.83-1.19,6.59-1.84,.76-4.14,.47-5.04-1.58s1.94-2.59,2.2-3.78-2.52-1.87-3.35-1.26c-.83,.61-.65-1.8-2.59-1.44-1.94,.36,.86,1.22,.58,3.1-.29,1.87-.4,5.29,1.69,7.38,2.09,2.09,8.43,4.9,12.71,.61,3.71-3.71,2.05-5.87,2.05-5.87,0,0,2.16,1.66,5.87-2.05,4.29-4.29,1.48-10.63-.61-12.71-2.09-2.09-5.51-1.98-7.38-1.69-1.87,.29-2.74-2.52-3.1-.58-.36,1.94,2.05,1.76,1.44,2.59s.07,3.6,1.26,3.35c1.19-.25,1.73-3.1,3.78-2.2,2.05,.9,2.34,3.21,1.58,5.04-.76,1.84-3.06,4.72-6.59,1.19-5.87-5.87-5.26-12.25-2.38-14.48,2.88-2.23,9.11-5.22,11.74-5.98,2.63-.76,1.28-.96,1.55-5.44,.09-1.55-.79-1.37-2.09-1.22-1.3,.14-1.98,.54-1.51,1.37,.47,.83-.47,2.63-.47,2.63,0,0-2.09,1.44-2.41-1.04-.32-2.49-2.74,.36-3.67,1.8s-2.13,3.06-2.95,2.23c-.83-.83,.4-3.21-1.69-1.69-2.76,2-3.46,5.83-3.46,5.83-1.3-3.03-2.34-1.91-2.34-1.91,0,0,.14-1.51,.72-2.16,.58-.65-.43-1.58-1.12-1.12-1.54,1.05-1.3,2.52-1.3,2.52-5.69-3.96-11.98-3.65-11.98-3.65,2.76,1.18,4.08,2.79,4.08,2.79-.87-.02-1.34,.77-1.34,.77,12.63,5.91,11.29,12.73,11.29,12.73,0,0-6.82,1.34-12.73-11.29,0,0-.79,.47-.77,1.34,0,0-1.61-1.32-2.79-4.08,0,0-.31,6.29,3.65,11.98,0,0-1.47-.25-2.52,1.3-.47,.68,.47,1.69,1.12,1.12,.65-.58,2.16-.72,2.16-.72,0,0-1.12,1.04,1.91,2.34,0,0-3.84,.7-5.83,3.46-1.51,2.09,.86,.86,1.69,1.69,.83,.83-.79,2.02-2.23,2.95-1.44,.94-4.29,3.35-1.8,3.67,2.49,.32,1.04,2.41,1.04,2.41,0,0-1.8,.94-2.63,.47s-1.22,.22-1.37,1.51-.32,2.18,1.22,2.09Z" />
    <path class="cls-2"
        d="M93.68,53.56c-4.48,.26-4.68-1.08-5.44,1.55s-3.75,8.86-5.98,11.74c-2.23,2.88-8.61,3.49-14.48-2.38-3.53-3.53-.65-5.83,1.19-6.59,1.84-.76,4.14-.47,5.04,1.58s-1.94,2.59-2.2,3.78c-.25,1.19,2.52,1.87,3.35,1.26,.83-.61,.65,1.8,2.59,1.44,1.94-.36-.86-1.22-.58-3.1,.29-1.87,.4-5.29-1.69-7.38-2.09-2.09-8.43-4.9-12.71-.61-3.71,3.71-2.05,5.87-2.05,5.87,0,0-2.16-1.66-5.87,2.05-4.29,4.29-1.48,10.63,.61,12.71,2.09,2.09,5.51,1.98,7.38,1.69,1.87-.29,2.74,2.52,3.1,.58s-2.05-1.76-1.44-2.59c.61-.83-.07-3.6-1.26-3.35-1.19,.25-1.73,3.1-3.78,2.2-2.05-.9-2.34-3.21-1.58-5.04,.76-1.84,3.06-4.72,6.59-1.19,5.87,5.87,5.26,12.25,2.38,14.48-2.88,2.23-9.11,5.22-11.74,5.98-2.63,.76-1.28,.96-1.55,5.44-.09,1.55,.79,1.37,2.09,1.22,1.3-.14,1.98-.54,1.51-1.37-.47-.83,.47-2.63,.47-2.63,0,0,2.09-1.44,2.41,1.04s2.74-.36,3.67-1.8,2.13-3.06,2.95-2.23c.83,.83-.4,3.21,1.69,1.69,2.76-2,3.46-5.83,3.46-5.83,1.3,3.03,2.34,1.91,2.34,1.91,0,0-.14,1.51-.72,2.16-.58,.65,.43,1.58,1.12,1.12,1.54-1.05,1.3-2.52,1.3-2.52,5.69,3.96,11.98,3.65,11.98,3.65-2.76-1.18-4.08-2.79-4.08-2.79,.87,.02,1.34-.77,1.34-.77-12.63-5.91-11.29-12.73-11.29-12.73,0,0,6.82-1.34,12.73,11.29,0,0,.79-.47,.77-1.34,0,0,1.61,1.32,2.79,4.08,0,0,.31-6.29-3.65-11.98,0,0,1.47,.25,2.52-1.3,.47-.68-.47-1.69-1.12-1.12s-2.16,.72-2.16,.72c0,0,1.12-1.04-1.91-2.34,0,0,3.84-.7,5.83-3.46,1.51-2.09-.86-.86-1.69-1.69-.83-.83,.79-2.02,2.23-2.95,1.44-.94,4.29-3.35,1.8-3.67-2.49-.32-1.04-2.41-1.04-2.41,0,0,1.8-.94,2.63-.47,.83,.47,1.22-.22,1.37-1.51s.32-2.18-1.22-2.09Z" />
    <path class="cls-2"
        d="M55.11,11.75c2.63,.76,8.86,3.75,11.74,5.98,2.88,2.23,3.49,8.61-2.38,14.48-3.53,3.53-5.83,.65-6.59-1.19-.76-1.84-.47-4.14,1.58-5.04,2.05-.9,2.59,1.94,3.78,2.2,1.19,.25,1.87-2.52,1.26-3.35-.61-.83,1.8-.65,1.44-2.59s-1.22,.86-3.1,.58c-1.87-.29-5.29-.4-7.38,1.69-2.09,2.09-4.9,8.43-.61,12.71,3.71,3.71,5.87,2.05,5.87,2.05,0,0-1.66,2.16,2.05,5.87,4.29,4.29,10.63,1.48,12.71-.61,2.09-2.09,1.98-5.51,1.69-7.38s2.52-2.74,.58-3.1c-1.94-.36-1.76,2.05-2.59,1.44-.83-.61-3.6,.07-3.35,1.26,.25,1.19,3.1,1.73,2.2,3.78s-3.21,2.34-5.04,1.58c-1.84-.76-4.72-3.06-1.19-6.59,5.87-5.87,12.25-5.26,14.48-2.38,2.23,2.88,5.22,9.11,5.98,11.74s.96,1.28,5.44,1.55c1.55,.09,1.37-.79,1.22-2.09-.14-1.3-.54-1.98-1.37-1.51s-2.63-.47-2.63-.47c0,0-1.44-2.09,1.04-2.41,2.49-.32-.36-2.74-1.8-3.67-1.44-.94-3.06-2.13-2.23-2.95,.83-.83,3.21,.4,1.69-1.69-2-2.76-5.83-3.46-5.83-3.46,3.03-1.3,1.91-2.34,1.91-2.34,0,0,1.51,.14,2.16,.72,.65,.58,1.58-.43,1.12-1.12-1.05-1.54-2.52-1.3-2.52-1.3,3.96-5.69,3.65-11.98,3.65-11.98-1.18,2.76-2.79,4.08-2.79,4.08,.02-.87-.77-1.34-.77-1.34-5.91,12.63-12.73,11.29-12.73,11.29,0,0-1.34-6.82,11.29-12.73,0,0-.47-.79-1.34-.77,0,0,1.32-1.61,4.08-2.79,0,0-6.29-.31-11.98,3.65,0,0,.25-1.47-1.3-2.52-.68-.47-1.69,.47-1.12,1.12,.58,.65,.72,2.16,.72,2.16,0,0-1.04-1.12-2.34,1.91,0,0-.7-3.84-3.46-5.83-2.09-1.51-.86,.86-1.69,1.69-.83,.83-2.02-.79-2.95-2.23-.94-1.44-3.35-4.29-3.67-1.8s-2.41,1.04-2.41,1.04c0,0-.94-1.8-.47-2.63s-.22-1.22-1.51-1.37c-1.3-.14-2.18-.32-2.09,1.22,.27,4.48-1.08,4.68,1.55,5.44Z" />
    <path class="cls-2"
        d="M44.89,88.25c-2.63-.76-8.86-3.75-11.74-5.98-2.88-2.23-3.49-8.61,2.38-14.48,3.53-3.53,5.83-.65,6.59,1.19,.76,1.84,.47,4.14-1.58,5.04-2.05,.9-2.59-1.94-3.78-2.2s-1.87,2.52-1.26,3.35c.61,.83-1.8,.65-1.44,2.59,.36,1.94,1.22-.86,3.1-.58,1.87,.29,5.29,.4,7.38-1.69,2.09-2.09,4.9-8.43,.61-12.71-3.71-3.71-5.87-2.05-5.87-2.05,0,0,1.66-2.16-2.05-5.87-4.29-4.29-10.63-1.48-12.71,.61-2.09,2.09-1.98,5.51-1.69,7.38,.29,1.87-2.52,2.74-.58,3.1,1.94,.36,1.76-2.05,2.59-1.44,.83,.61,3.6-.07,3.35-1.26-.25-1.19-3.1-1.73-2.2-3.78s3.21-2.34,5.04-1.58c1.84,.76,4.72,3.06,1.19,6.59-5.87,5.87-12.25,5.26-14.48,2.38-2.23-2.88-5.22-9.11-5.98-11.74-.76-2.63-.96-1.28-5.44-1.55-1.55-.09-1.37,.79-1.22,2.09s.54,1.98,1.37,1.51c.83-.47,2.63,.47,2.63,.47,0,0,1.44,2.09-1.04,2.41-2.49,.32,.36,2.74,1.8,3.67s3.06,2.13,2.23,2.95c-.83,.83-3.21-.4-1.69,1.69,2,2.76,5.83,3.46,5.83,3.46-3.03,1.3-1.91,2.34-1.91,2.34,0,0-1.51-.14-2.16-.72-.65-.58-1.58,.43-1.12,1.12,1.05,1.54,2.52,1.3,2.52,1.3-3.96,5.69-3.65,11.98-3.65,11.98,1.18-2.76,2.79-4.08,2.79-4.08-.02,.87,.77,1.34,.77,1.34,5.91-12.63,12.73-11.29,12.73-11.29,0,0,1.34,6.82-11.29,12.73,0,0,.47,.79,1.34,.77,0,0-1.32,1.61-4.08,2.79,0,0,6.29,.31,11.98-3.65,0,0-.25,1.47,1.3,2.52,.68,.47,1.69-.47,1.12-1.12-.58-.65-.72-2.16-.72-2.16,0,0,1.04,1.12,2.34-1.91,0,0,.7,3.84,3.46,5.83,2.09,1.51,.86-.86,1.69-1.69,.83-.83,2.02,.79,2.95,2.23,.94,1.44,3.35,4.29,3.67,1.8,.32-2.49,2.41-1.04,2.41-1.04,0,0,.94,1.8,.47,2.63s.22,1.22,1.51,1.37c1.3,.14,2.18,.32,2.09-1.22-.27-4.48,1.08-4.68-1.55-5.44Z" />
    <path class="cls-2"
        d="M49.83,18.12c.09,.14,.29,.14,.38,0l3.01-4.67c.12-.19,0-.43-.21-.46l-1.95-.25c0-2.73,.15-3.51-1.03-3.51s-1.03,.77-1.03,3.51l-1.95,.25c-.22,.03-.33,.28-.21,.46l3.01,4.67Z" />
    <path class="cls-2"
        d="M50.17,81.88c-.09-.14-.29-.14-.38,0l-3.01,4.67c-.12,.19,0,.43,.21,.46l1.95,.25c0,2.73-.15,3.51,1.03,3.51s1.03-.77,1.03-3.51l1.95-.25c.22-.03,.33-.28,.21-.46l-3.01-4.67Z" />
    <path class="cls-2"
        d="M87.26,48.99l-.25-1.95c-.03-.22-.28-.33-.46-.21l-4.67,3.01c-.14,.09-.14,.29,0,.38l4.67,3.01c.19,.12,.43,0,.46-.21l.25-1.95c2.73,0,3.51,.15,3.51-1.03s-.77-1.03-3.51-1.03Z" />
    <path class="cls-2"
        d="M12.74,51.01l.25,1.95c.03,.22,.28,.33,.46,.21l4.67-3.01c.14-.09,.14-.29,0-.38l-4.67-3.01c-.19-.12-.43,0-.46,.21l-.25,1.95c-2.73,0-3.51-.15-3.51,1.03s.77,1.03,3.51,1.03Z" />
    <polygon class="cls-2"
        points="51 48.78 52.39 44.73 50 39.88 47.61 44.73 49 48.78 45.62 47.63 40.77 50.01 45.62 52.4 49 51.24 47.61 55.29 50 60.14 52.39 55.29 51 51.24 54.38 52.4 59.23 50.01 54.38 47.63 51 48.78" />
</svg>